<?xml version="1.0" encoding="UTF-8" standalone="no"?>
<!-- Created with Inkscape (http://www.inkscape.org/) -->

<svg
   width="4.2519679mm"
   height="6.6145835mm"
   viewBox="0 0 4.2519679 6.6145835"
   version="1.1"
   id="svg5"
   xml:space="preserve"
   xmlns:inkscape="http://www.inkscape.org/namespaces/inkscape"
   xmlns:sodipodi="http://sodipodi.sourceforge.net/DTD/sodipodi-0.dtd"
   xmlns="http://www.w3.org/2000/svg"
   xmlns:svg="http://www.w3.org/2000/svg"><sodipodi:namedview
     id="namedview7"
     pagecolor="#ffffff"
     bordercolor="#000000"
     borderopacity="0.25"
     inkscape:showpageshadow="2"
     inkscape:pageopacity="0.0"
     inkscape:pagecheckerboard="0"
     inkscape:deskcolor="#d1d1d1"
     inkscape:document-units="mm"
     showgrid="false"
     inkscape:zoom="20.392915"
     inkscape:cx="7.600679"
     inkscape:cy="17.530598"
     inkscape:window-width="1900"
     inkscape:window-height="992"
     inkscape:window-x="10"
     inkscape:window-y="46"
     inkscape:window-maximized="1"
     inkscape:current-layer="layer1" /><defs
     id="defs2" /><g
     inkscape:label="Layer 1"
     inkscape:groupmode="layer"
     id="layer1"
     transform="translate(-28.663188,-46.370918)"><g
       id="g34914"
       transform="matrix(0.05,0,0,0.05,15.757184,42.854774)"><path
         style="fill:#3f2a9e;fill-opacity:0.845614;fill-rule:nonzero;stroke:none;stroke-width:0.117822;stroke-linecap:round;stroke-linejoin:round;stroke-dasharray:none;stroke-opacity:1"
         d="m 289.46374,149.93503 41.04229,-71.087321 c 2.32952,-4.855162 -2.35256,-10.377386 -7.92159,-7.921586 l -61.87233,35.722017 c -2.4987,1.70769 -3.24395,4.93214 -2.00372,7.47795 l 20.84522,36.10499 c 3.11232,3.93213 7.96932,2.90659 9.91013,-0.29605 z"
         id="path5716"
         sodipodi:nodetypes="ccccccc" /><path
         style="fill:#3f2a9e;fill-opacity:0.845614;fill-rule:nonzero;stroke:none;stroke-width:0.117822;stroke-linecap:round;stroke-linejoin:round;stroke-dasharray:none;stroke-opacity:1"
         d="m 311.81579,123.0024 -41.04228,71.08732 c -2.32952,4.85516 2.35256,10.37739 7.92158,7.92159 l 61.87234,-35.72201 c 2.4987,-1.70769 3.24394,-4.93214 2.00371,-7.47796 l -20.84522,-36.10498 c -3.11232,-3.93214 -7.96933,-2.9066 -9.91013,0.29604 z"
         id="path5716-7"
         sodipodi:nodetypes="ccccccc" /></g></g></svg>
